<svg width="43" height="32" viewBox="0 0 43 32" fill="none" xmlns="http://www.w3.org/2000/svg">
<path d="M0.737305 31.4551V19.71C0.737305 14.1436 2.05469 9.74609 4.68945 6.51758C7.36133 3.28906 11.2393 1.17383 16.3232 0.171875V5.96094C12.5381 7.14844 9.99609 9.18945 8.69727 12.084C8.0293 13.6055 7.75098 15.1826 7.8623 16.8154H16.6016V31.4551H0.737305ZM42.708 5.96094C38.96 7.11133 36.4365 9.18945 35.1377 12.1953C34.3955 13.791 34.0986 15.3311 34.2471 16.8154H42.9863V31.4551H27.1221V19.71C27.1221 14.0693 28.4766 9.65332 31.1855 6.46191C33.9316 3.27051 37.7725 1.17383 42.708 0.171875V5.96094Z" fill="#6A6F4C"/>
</svg>
